<svg width="21" height="7" viewBox="0 0 21 7" fill="none" xmlns="http://www.w3.org/2000/svg">
<path d="M10.4998 0.916016C9.079 0.916016 7.9165 2.07852 7.9165 3.49935C7.9165 4.92018 9.079 6.08268 10.4998 6.08268C11.9207 6.08268 13.0832 4.92018 13.0832 3.49935C13.0832 2.07852 11.9207 0.916016 10.4998 0.916016ZM18.2498 0.916016C16.829 0.916016 15.6665 2.07852 15.6665 3.49935C15.6665 4.92018 16.829 6.08268 18.2498 6.08268C19.6707 6.08268 20.8332 4.92018 20.8332 3.49935C20.8332 2.07852 19.6707 0.916016 18.2498 0.916016ZM2.74984 0.916016C1.329 0.916016 0.166504 2.07852 0.166504 3.49935C0.166504 4.92018 1.329 6.08268 2.74984 6.08268C4.17067 6.08268 5.33317 4.92018 5.33317 3.49935C5.33317 2.07852 4.17067 0.916016 2.74984 0.916016Z" fill="white"/>
</svg>
