<svg width="35" height="33" viewBox="0 0 35 33" fill="none" xmlns="http://www.w3.org/2000/svg">
<path d="M22.4239 6.17391C22.6558 5.94203 23.0317 5.94203 23.2636 6.17391L26.8261 9.73641C27.058 9.96828 27.058 10.3442 26.8261 10.5761L14.9511 22.4511C14.8943 22.508 14.8264 22.5527 14.7518 22.5825L8.81428 24.9575C8.59375 25.0457 8.34187 24.994 8.17392 24.8261C8.00597 24.6581 7.95427 24.4063 8.04248 24.1857L10.4175 18.2482C10.4473 18.1736 10.4921 18.1058 10.5489 18.0489L22.4239 6.17391ZM21.3085 8.96875L24.0313 11.6916L25.5666 10.1562L22.8438 7.43344L21.3085 8.96875ZM23.1916 12.5312L20.4688 9.80844L12.75 17.5272V17.875H13.3438C13.6717 17.875 13.9375 18.1408 13.9375 18.4688V19.0625H14.5313C14.8592 19.0625 15.125 19.3283 15.125 19.6562V20.25H15.4728L23.1916 12.5312ZM11.6001 18.6771L11.4748 18.8024L9.65958 23.3404L14.1976 21.5252L14.3229 21.3999C14.0978 21.3155 13.9375 21.0984 13.9375 20.8438V20.25H13.3438C13.0158 20.25 12.75 19.9842 12.75 19.6562V19.0625H12.1563C11.9017 19.0625 11.6845 18.9022 11.6001 18.6771Z" fill="white"/>
<rect x="1" y="1" width="33" height="30.25" rx="7" stroke="white" stroke-width="2"/>
</svg>
