<svg width="29" height="29" viewBox="0 0 29 29" fill="none" xmlns="http://www.w3.org/2000/svg">
<rect x="0.5" y="0.5" width="28" height="28" rx="7.5" fill="#F58534"/>
<path d="M19.4239 5.17391C19.6558 4.94203 20.0317 4.94203 20.2636 5.17391L23.8261 8.73641C24.058 8.96828 24.058 9.34422 23.8261 9.57609L11.9511 21.4511C11.8943 21.508 11.8264 21.5527 11.7518 21.5825L5.81428 23.9575C5.59375 24.0457 5.34187 23.994 5.17392 23.8261C5.00597 23.6581 4.95427 23.4063 5.04248 23.1857L7.41748 17.2482C7.44735 17.1736 7.49206 17.1058 7.54892 17.0489L19.4239 5.17391ZM18.3085 7.96875L21.0313 10.6916L22.5666 9.15625L19.8438 6.43344L18.3085 7.96875ZM20.1916 11.5312L17.4688 8.80844L9.75002 16.5272V16.875H10.3438C10.6717 16.875 10.9375 17.1408 10.9375 17.4688V18.0625H11.5313C11.8592 18.0625 12.125 18.3283 12.125 18.6562V19.25H12.4728L20.1916 11.5312ZM8.6001 17.6771L8.47479 17.8024L6.65958 22.3404L11.1976 20.5252L11.3229 20.3999C11.0978 20.3155 10.9375 20.0984 10.9375 19.8438V19.25H10.3438C10.0158 19.25 9.75002 18.9842 9.75002 18.6562V18.0625H9.15627C8.90166 18.0625 8.68449 17.9022 8.6001 17.6771Z" fill="white"/>
<rect x="0.5" y="0.5" width="28" height="28" rx="7.5" stroke="#F58534"/>
</svg>
