<svg width="8" height="25" viewBox="0 0 8 25" fill="none" xmlns="http://www.w3.org/2000/svg">
<path d="M1.01309 12.0313C1.01796 13.6813 2.37193 15.0273 4.02192 15.0224C5.67192 15.0176 7.01793 13.6636 7.01307 12.0136C7.00821 10.3636 5.65423 9.01761 4.00424 9.02247C2.35425 9.02734 1.00823 10.3813 1.01309 12.0313ZM0.986569 3.03134C0.991432 4.68133 2.3454 6.02735 3.9954 6.02249C5.64539 6.01762 6.99141 4.66365 6.98654 3.01366C6.98168 1.36367 5.62771 0.0176495 3.97771 0.0225126C2.32772 0.0273756 0.981706 1.38135 0.986569 3.03134ZM1.03962 21.0313C1.04448 22.6813 2.39846 24.0273 4.04845 24.0224C5.69844 24.0175 7.04446 22.6636 7.03959 21.0136C7.03473 19.3636 5.68076 18.0176 4.03077 18.0224C2.38077 18.0273 1.03476 19.3813 1.03962 21.0313Z" fill="black"/>
</svg>
